<mxfile host="Electron" modified="2024-04-02T22:27:45.868Z" agent="Mozilla/5.0 (Windows NT 10.0; Win64; x64) AppleWebKit/537.36 (KHTML, like Gecko) draw.io/24.1.0 Chrome/120.0.6099.109 Electron/28.1.0 Safari/537.36" etag="FEyZ1Xr1DrhBN-2PvyzJ" version="24.1.0" type="device">
  <diagram name="Page-1" id="cU_0cLu1bUYURafq7zLH">
    <mxGraphModel dx="1461" dy="1931" grid="1" gridSize="10" guides="1" tooltips="1" connect="1" arrows="1" fold="1" page="1" pageScale="1" pageWidth="850" pageHeight="1100" math="0" shadow="0">
      <root>
        <mxCell id="0" />
        <mxCell id="1" parent="0" />
        <mxCell id="UPEFJn1TwGiRiXBq0O36-27" style="edgeStyle=orthogonalEdgeStyle;rounded=0;orthogonalLoop=1;jettySize=auto;html=1;entryX=1;entryY=0.5;entryDx=0;entryDy=0;" edge="1" parent="1" source="UPEFJn1TwGiRiXBq0O36-1" target="UPEFJn1TwGiRiXBq0O36-16">
          <mxGeometry relative="1" as="geometry" />
        </mxCell>
        <mxCell id="UPEFJn1TwGiRiXBq0O36-28" style="edgeStyle=orthogonalEdgeStyle;rounded=0;orthogonalLoop=1;jettySize=auto;html=1;entryX=1;entryY=0.5;entryDx=0;entryDy=0;" edge="1" parent="1" source="UPEFJn1TwGiRiXBq0O36-1" target="UPEFJn1TwGiRiXBq0O36-15">
          <mxGeometry relative="1" as="geometry" />
        </mxCell>
        <mxCell id="UPEFJn1TwGiRiXBq0O36-30" style="edgeStyle=orthogonalEdgeStyle;rounded=0;orthogonalLoop=1;jettySize=auto;html=1;entryX=1;entryY=0.5;entryDx=0;entryDy=0;" edge="1" parent="1" source="UPEFJn1TwGiRiXBq0O36-1" target="UPEFJn1TwGiRiXBq0O36-12">
          <mxGeometry relative="1" as="geometry" />
        </mxCell>
        <mxCell id="UPEFJn1TwGiRiXBq0O36-31" style="edgeStyle=orthogonalEdgeStyle;rounded=0;orthogonalLoop=1;jettySize=auto;html=1;entryX=1;entryY=0.5;entryDx=0;entryDy=0;" edge="1" parent="1" source="UPEFJn1TwGiRiXBq0O36-1" target="UPEFJn1TwGiRiXBq0O36-7">
          <mxGeometry relative="1" as="geometry" />
        </mxCell>
        <mxCell id="UPEFJn1TwGiRiXBq0O36-32" style="edgeStyle=orthogonalEdgeStyle;rounded=0;orthogonalLoop=1;jettySize=auto;html=1;entryX=1;entryY=0.5;entryDx=0;entryDy=0;" edge="1" parent="1" source="UPEFJn1TwGiRiXBq0O36-1" target="UPEFJn1TwGiRiXBq0O36-13">
          <mxGeometry relative="1" as="geometry" />
        </mxCell>
        <mxCell id="UPEFJn1TwGiRiXBq0O36-33" style="edgeStyle=orthogonalEdgeStyle;rounded=0;orthogonalLoop=1;jettySize=auto;html=1;entryX=1;entryY=0.5;entryDx=0;entryDy=0;" edge="1" parent="1" source="UPEFJn1TwGiRiXBq0O36-1" target="UPEFJn1TwGiRiXBq0O36-18">
          <mxGeometry relative="1" as="geometry" />
        </mxCell>
        <mxCell id="UPEFJn1TwGiRiXBq0O36-34" style="edgeStyle=orthogonalEdgeStyle;rounded=0;orthogonalLoop=1;jettySize=auto;html=1;entryX=1;entryY=0.5;entryDx=0;entryDy=0;" edge="1" parent="1" source="UPEFJn1TwGiRiXBq0O36-1" target="UPEFJn1TwGiRiXBq0O36-17">
          <mxGeometry relative="1" as="geometry" />
        </mxCell>
        <mxCell id="UPEFJn1TwGiRiXBq0O36-35" style="edgeStyle=orthogonalEdgeStyle;rounded=0;orthogonalLoop=1;jettySize=auto;html=1;entryX=0;entryY=0.5;entryDx=0;entryDy=0;" edge="1" parent="1" source="UPEFJn1TwGiRiXBq0O36-1" target="UPEFJn1TwGiRiXBq0O36-24">
          <mxGeometry relative="1" as="geometry" />
        </mxCell>
        <mxCell id="UPEFJn1TwGiRiXBq0O36-36" style="edgeStyle=orthogonalEdgeStyle;rounded=0;orthogonalLoop=1;jettySize=auto;html=1;entryX=0;entryY=0.5;entryDx=0;entryDy=0;" edge="1" parent="1" source="UPEFJn1TwGiRiXBq0O36-1" target="UPEFJn1TwGiRiXBq0O36-25">
          <mxGeometry relative="1" as="geometry" />
        </mxCell>
        <mxCell id="UPEFJn1TwGiRiXBq0O36-37" style="edgeStyle=orthogonalEdgeStyle;rounded=0;orthogonalLoop=1;jettySize=auto;html=1;entryX=0;entryY=0.5;entryDx=0;entryDy=0;" edge="1" parent="1" source="UPEFJn1TwGiRiXBq0O36-1" target="UPEFJn1TwGiRiXBq0O36-19">
          <mxGeometry relative="1" as="geometry" />
        </mxCell>
        <mxCell id="UPEFJn1TwGiRiXBq0O36-38" style="edgeStyle=orthogonalEdgeStyle;rounded=0;orthogonalLoop=1;jettySize=auto;html=1;entryX=0;entryY=0.5;entryDx=0;entryDy=0;" edge="1" parent="1" source="UPEFJn1TwGiRiXBq0O36-1" target="UPEFJn1TwGiRiXBq0O36-21">
          <mxGeometry relative="1" as="geometry" />
        </mxCell>
        <mxCell id="UPEFJn1TwGiRiXBq0O36-39" style="edgeStyle=orthogonalEdgeStyle;rounded=0;orthogonalLoop=1;jettySize=auto;html=1;entryX=0;entryY=0.5;entryDx=0;entryDy=0;" edge="1" parent="1" source="UPEFJn1TwGiRiXBq0O36-1" target="UPEFJn1TwGiRiXBq0O36-20">
          <mxGeometry relative="1" as="geometry" />
        </mxCell>
        <mxCell id="UPEFJn1TwGiRiXBq0O36-40" style="edgeStyle=orthogonalEdgeStyle;rounded=0;orthogonalLoop=1;jettySize=auto;html=1;entryX=0;entryY=0.5;entryDx=0;entryDy=0;" edge="1" parent="1" source="UPEFJn1TwGiRiXBq0O36-1" target="UPEFJn1TwGiRiXBq0O36-22">
          <mxGeometry relative="1" as="geometry" />
        </mxCell>
        <mxCell id="UPEFJn1TwGiRiXBq0O36-41" style="edgeStyle=orthogonalEdgeStyle;rounded=0;orthogonalLoop=1;jettySize=auto;html=1;entryX=0;entryY=0.5;entryDx=0;entryDy=0;" edge="1" parent="1" source="UPEFJn1TwGiRiXBq0O36-1" target="UPEFJn1TwGiRiXBq0O36-23">
          <mxGeometry relative="1" as="geometry" />
        </mxCell>
        <mxCell id="UPEFJn1TwGiRiXBq0O36-1" value="Адміністратор кінотеатру" style="shape=umlActor;verticalLabelPosition=bottom;verticalAlign=top;html=1;outlineConnect=0;" vertex="1" parent="1">
          <mxGeometry x="300" y="230" width="30" height="60" as="geometry" />
        </mxCell>
        <mxCell id="UPEFJn1TwGiRiXBq0O36-7" value="Управоіння персоналом кінотеатру" style="ellipse;whiteSpace=wrap;html=1;" vertex="1" parent="1">
          <mxGeometry x="100" y="230" width="120" height="60" as="geometry" />
        </mxCell>
        <mxCell id="UPEFJn1TwGiRiXBq0O36-12" value="Обробка відгуків та скарг клієнтів" style="ellipse;whiteSpace=wrap;html=1;" vertex="1" parent="1">
          <mxGeometry x="100" y="150" width="120" height="60" as="geometry" />
        </mxCell>
        <mxCell id="UPEFJn1TwGiRiXBq0O36-13" value="Керування рекламними компаніями" style="ellipse;whiteSpace=wrap;html=1;" vertex="1" parent="1">
          <mxGeometry x="100" y="310" width="120" height="60" as="geometry" />
        </mxCell>
        <mxCell id="UPEFJn1TwGiRiXBq0O36-15" value="&lt;span data-lucid-content=&quot;{&amp;quot;t&amp;quot;:&amp;quot;Ведення обліку продажів у барі кінотеатру&amp;quot;,&amp;quot;m&amp;quot;:[{&amp;quot;s&amp;quot;:0,&amp;quot;n&amp;quot;:&amp;quot;a&amp;quot;,&amp;quot;v&amp;quot;:&amp;quot;center&amp;quot;},{&amp;quot;s&amp;quot;:0,&amp;quot;n&amp;quot;:&amp;quot;f&amp;quot;,&amp;quot;v&amp;quot;:&amp;quot;Roboto&amp;quot;,&amp;quot;e&amp;quot;:41},{&amp;quot;s&amp;quot;:0,&amp;quot;n&amp;quot;:&amp;quot;s&amp;quot;,&amp;quot;v&amp;quot;:21.333333333333336,&amp;quot;e&amp;quot;:41},{&amp;quot;s&amp;quot;:0,&amp;quot;n&amp;quot;:&amp;quot;fsp&amp;quot;,&amp;quot;v&amp;quot;:&amp;quot;ss_presetShapeStyle1_textStyle&amp;quot;,&amp;quot;e&amp;quot;:41},{&amp;quot;s&amp;quot;:0,&amp;quot;n&amp;quot;:&amp;quot;fsp2&amp;quot;,&amp;quot;v&amp;quot;:&amp;quot;ss_presetShapeStyle1_textStyle&amp;quot;,&amp;quot;e&amp;quot;:41}]}&quot; data-lucid-type=&quot;application/vnd.lucid.text&quot;&gt;&lt;span style=&quot;color: rgb(58, 65, 74);&quot;&gt;&lt;font style=&quot;font-size: 12px;&quot;&gt;Ведення обліку продажів у барі кінотеатру&lt;/font&gt;&lt;/span&gt;&lt;/span&gt;" style="ellipse;whiteSpace=wrap;html=1;" vertex="1" parent="1">
          <mxGeometry x="100" y="70" width="120" height="60" as="geometry" />
        </mxCell>
        <mxCell id="UPEFJn1TwGiRiXBq0O36-16" value="Управління кінотеатру" style="ellipse;whiteSpace=wrap;html=1;" vertex="1" parent="1">
          <mxGeometry x="100" y="-10" width="120" height="60" as="geometry" />
        </mxCell>
        <mxCell id="UPEFJn1TwGiRiXBq0O36-17" value="Підтримка користувачів" style="ellipse;whiteSpace=wrap;html=1;" vertex="1" parent="1">
          <mxGeometry x="100" y="470" width="120" height="60" as="geometry" />
        </mxCell>
        <mxCell id="UPEFJn1TwGiRiXBq0O36-18" value="Звітність та аналітика" style="ellipse;whiteSpace=wrap;html=1;" vertex="1" parent="1">
          <mxGeometry x="100" y="390" width="120" height="60" as="geometry" />
        </mxCell>
        <mxCell id="UPEFJn1TwGiRiXBq0O36-19" value="Управління залами" style="ellipse;whiteSpace=wrap;html=1;" vertex="1" parent="1">
          <mxGeometry x="410" y="230" width="120" height="60" as="geometry" />
        </mxCell>
        <mxCell id="UPEFJn1TwGiRiXBq0O36-20" value="Моніторинг продажі квитків" style="ellipse;whiteSpace=wrap;html=1;" vertex="1" parent="1">
          <mxGeometry x="410" y="150" width="120" height="60" as="geometry" />
        </mxCell>
        <mxCell id="UPEFJn1TwGiRiXBq0O36-21" value="Настройка цін і знижок" style="ellipse;whiteSpace=wrap;html=1;" vertex="1" parent="1">
          <mxGeometry x="410" y="310" width="120" height="60" as="geometry" />
        </mxCell>
        <mxCell id="UPEFJn1TwGiRiXBq0O36-22" value="Керування інформацією про фільм" style="ellipse;whiteSpace=wrap;html=1;" vertex="1" parent="1">
          <mxGeometry x="410" y="70" width="120" height="60" as="geometry" />
        </mxCell>
        <mxCell id="UPEFJn1TwGiRiXBq0O36-23" value="Управління розкладом сеансів" style="ellipse;whiteSpace=wrap;html=1;" vertex="1" parent="1">
          <mxGeometry x="410" y="-10" width="120" height="60" as="geometry" />
        </mxCell>
        <mxCell id="UPEFJn1TwGiRiXBq0O36-24" value="Аналіз відвідуваності та попиту на фільм" style="ellipse;whiteSpace=wrap;html=1;" vertex="1" parent="1">
          <mxGeometry x="410" y="470" width="120" height="60" as="geometry" />
        </mxCell>
        <mxCell id="UPEFJn1TwGiRiXBq0O36-25" value="Ведення бази даних клієнтів" style="ellipse;whiteSpace=wrap;html=1;" vertex="1" parent="1">
          <mxGeometry x="410" y="390" width="120" height="60" as="geometry" />
        </mxCell>
        <mxCell id="UPEFJn1TwGiRiXBq0O36-58" style="edgeStyle=orthogonalEdgeStyle;rounded=0;orthogonalLoop=1;jettySize=auto;html=1;entryX=1;entryY=0.5;entryDx=0;entryDy=0;" edge="1" parent="1" source="UPEFJn1TwGiRiXBq0O36-42" target="UPEFJn1TwGiRiXBq0O36-43">
          <mxGeometry relative="1" as="geometry" />
        </mxCell>
        <mxCell id="UPEFJn1TwGiRiXBq0O36-59" style="edgeStyle=orthogonalEdgeStyle;rounded=0;orthogonalLoop=1;jettySize=auto;html=1;entryX=1;entryY=0.5;entryDx=0;entryDy=0;" edge="1" parent="1" source="UPEFJn1TwGiRiXBq0O36-42" target="UPEFJn1TwGiRiXBq0O36-46">
          <mxGeometry relative="1" as="geometry" />
        </mxCell>
        <mxCell id="UPEFJn1TwGiRiXBq0O36-60" style="edgeStyle=orthogonalEdgeStyle;rounded=0;orthogonalLoop=1;jettySize=auto;html=1;entryX=1;entryY=0.5;entryDx=0;entryDy=0;" edge="1" parent="1" source="UPEFJn1TwGiRiXBq0O36-42" target="UPEFJn1TwGiRiXBq0O36-47">
          <mxGeometry relative="1" as="geometry" />
        </mxCell>
        <mxCell id="UPEFJn1TwGiRiXBq0O36-61" style="edgeStyle=orthogonalEdgeStyle;rounded=0;orthogonalLoop=1;jettySize=auto;html=1;entryX=1;entryY=0.5;entryDx=0;entryDy=0;" edge="1" parent="1" source="UPEFJn1TwGiRiXBq0O36-42" target="UPEFJn1TwGiRiXBq0O36-48">
          <mxGeometry relative="1" as="geometry" />
        </mxCell>
        <mxCell id="UPEFJn1TwGiRiXBq0O36-62" style="edgeStyle=orthogonalEdgeStyle;rounded=0;orthogonalLoop=1;jettySize=auto;html=1;entryX=1;entryY=0.5;entryDx=0;entryDy=0;" edge="1" parent="1" source="UPEFJn1TwGiRiXBq0O36-42" target="UPEFJn1TwGiRiXBq0O36-51">
          <mxGeometry relative="1" as="geometry" />
        </mxCell>
        <mxCell id="UPEFJn1TwGiRiXBq0O36-63" style="edgeStyle=orthogonalEdgeStyle;rounded=0;orthogonalLoop=1;jettySize=auto;html=1;entryX=1;entryY=0.5;entryDx=0;entryDy=0;" edge="1" parent="1" source="UPEFJn1TwGiRiXBq0O36-42" target="UPEFJn1TwGiRiXBq0O36-50">
          <mxGeometry relative="1" as="geometry" />
        </mxCell>
        <mxCell id="UPEFJn1TwGiRiXBq0O36-64" style="edgeStyle=orthogonalEdgeStyle;rounded=0;orthogonalLoop=1;jettySize=auto;html=1;entryX=1;entryY=0.5;entryDx=0;entryDy=0;" edge="1" parent="1" source="UPEFJn1TwGiRiXBq0O36-42" target="UPEFJn1TwGiRiXBq0O36-49">
          <mxGeometry relative="1" as="geometry" />
        </mxCell>
        <mxCell id="UPEFJn1TwGiRiXBq0O36-65" style="edgeStyle=orthogonalEdgeStyle;rounded=0;orthogonalLoop=1;jettySize=auto;html=1;entryX=0;entryY=0.5;entryDx=0;entryDy=0;" edge="1" parent="1" source="UPEFJn1TwGiRiXBq0O36-42" target="UPEFJn1TwGiRiXBq0O36-54">
          <mxGeometry relative="1" as="geometry" />
        </mxCell>
        <mxCell id="UPEFJn1TwGiRiXBq0O36-66" style="edgeStyle=orthogonalEdgeStyle;rounded=0;orthogonalLoop=1;jettySize=auto;html=1;entryX=0;entryY=0.5;entryDx=0;entryDy=0;" edge="1" parent="1" source="UPEFJn1TwGiRiXBq0O36-42" target="UPEFJn1TwGiRiXBq0O36-53">
          <mxGeometry relative="1" as="geometry" />
        </mxCell>
        <mxCell id="UPEFJn1TwGiRiXBq0O36-67" style="edgeStyle=orthogonalEdgeStyle;rounded=0;orthogonalLoop=1;jettySize=auto;html=1;entryX=0;entryY=0.5;entryDx=0;entryDy=0;" edge="1" parent="1" source="UPEFJn1TwGiRiXBq0O36-42" target="UPEFJn1TwGiRiXBq0O36-52">
          <mxGeometry relative="1" as="geometry" />
        </mxCell>
        <mxCell id="UPEFJn1TwGiRiXBq0O36-68" style="edgeStyle=orthogonalEdgeStyle;rounded=0;orthogonalLoop=1;jettySize=auto;html=1;entryX=0;entryY=0.5;entryDx=0;entryDy=0;" edge="1" parent="1" source="UPEFJn1TwGiRiXBq0O36-42" target="UPEFJn1TwGiRiXBq0O36-45">
          <mxGeometry relative="1" as="geometry" />
        </mxCell>
        <mxCell id="UPEFJn1TwGiRiXBq0O36-69" style="edgeStyle=orthogonalEdgeStyle;rounded=0;orthogonalLoop=1;jettySize=auto;html=1;entryX=0;entryY=0.5;entryDx=0;entryDy=0;" edge="1" parent="1" source="UPEFJn1TwGiRiXBq0O36-42" target="UPEFJn1TwGiRiXBq0O36-57">
          <mxGeometry relative="1" as="geometry" />
        </mxCell>
        <mxCell id="UPEFJn1TwGiRiXBq0O36-70" style="edgeStyle=orthogonalEdgeStyle;rounded=0;orthogonalLoop=1;jettySize=auto;html=1;entryX=0;entryY=0.5;entryDx=0;entryDy=0;" edge="1" parent="1" source="UPEFJn1TwGiRiXBq0O36-42" target="UPEFJn1TwGiRiXBq0O36-56">
          <mxGeometry relative="1" as="geometry" />
        </mxCell>
        <mxCell id="UPEFJn1TwGiRiXBq0O36-71" style="edgeStyle=orthogonalEdgeStyle;rounded=0;orthogonalLoop=1;jettySize=auto;html=1;entryX=0;entryY=0.5;entryDx=0;entryDy=0;" edge="1" parent="1" source="UPEFJn1TwGiRiXBq0O36-42" target="UPEFJn1TwGiRiXBq0O36-55">
          <mxGeometry relative="1" as="geometry" />
        </mxCell>
        <mxCell id="UPEFJn1TwGiRiXBq0O36-42" value="Клієнт" style="shape=umlActor;verticalLabelPosition=bottom;verticalAlign=top;html=1;outlineConnect=0;" vertex="1" parent="1">
          <mxGeometry x="900" y="230" width="30" height="60" as="geometry" />
        </mxCell>
        <mxCell id="UPEFJn1TwGiRiXBq0O36-43" value="Залишення відгуків про фільм" style="ellipse;whiteSpace=wrap;html=1;" vertex="1" parent="1">
          <mxGeometry x="700" y="230" width="120" height="60" as="geometry" />
        </mxCell>
        <mxCell id="UPEFJn1TwGiRiXBq0O36-45" value="Бронювання місць" style="ellipse;whiteSpace=wrap;html=1;" vertex="1" parent="1">
          <mxGeometry x="1020" y="230" width="120" height="60" as="geometry" />
        </mxCell>
        <mxCell id="UPEFJn1TwGiRiXBq0O36-46" value="Підписка на розсилку" style="ellipse;whiteSpace=wrap;html=1;" vertex="1" parent="1">
          <mxGeometry x="700" y="150" width="120" height="60" as="geometry" />
        </mxCell>
        <mxCell id="UPEFJn1TwGiRiXBq0O36-47" value="Реєстрація та вхід в особистий кабінет" style="ellipse;whiteSpace=wrap;html=1;" vertex="1" parent="1">
          <mxGeometry x="700" y="70" width="120" height="60" as="geometry" />
        </mxCell>
        <mxCell id="UPEFJn1TwGiRiXBq0O36-48" value="Перегляд акцій та знижок" style="ellipse;whiteSpace=wrap;html=1;" vertex="1" parent="1">
          <mxGeometry x="700" y="-10" width="120" height="60" as="geometry" />
        </mxCell>
        <mxCell id="UPEFJn1TwGiRiXBq0O36-49" value="Онлайн-чат підтримка" style="ellipse;whiteSpace=wrap;html=1;" vertex="1" parent="1">
          <mxGeometry x="700" y="470" width="120" height="60" as="geometry" />
        </mxCell>
        <mxCell id="UPEFJn1TwGiRiXBq0O36-50" value="Бронювання продукції з бару" style="ellipse;whiteSpace=wrap;html=1;" vertex="1" parent="1">
          <mxGeometry x="700" y="390" width="120" height="60" as="geometry" />
        </mxCell>
        <mxCell id="UPEFJn1TwGiRiXBq0O36-51" value="Перегяд меню бару кінотеатру" style="ellipse;whiteSpace=wrap;html=1;" vertex="1" parent="1">
          <mxGeometry x="700" y="310" width="120" height="60" as="geometry" />
        </mxCell>
        <mxCell id="UPEFJn1TwGiRiXBq0O36-52" value="Вибір сеансу" style="ellipse;whiteSpace=wrap;html=1;" vertex="1" parent="1">
          <mxGeometry x="1020" y="150" width="120" height="60" as="geometry" />
        </mxCell>
        <mxCell id="UPEFJn1TwGiRiXBq0O36-53" value="Перегляд деталей фільму" style="ellipse;whiteSpace=wrap;html=1;" vertex="1" parent="1">
          <mxGeometry x="1020" y="70" width="120" height="60" as="geometry" />
        </mxCell>
        <mxCell id="UPEFJn1TwGiRiXBq0O36-54" value="Пошук фільмів" style="ellipse;whiteSpace=wrap;html=1;" vertex="1" parent="1">
          <mxGeometry x="1020" y="-10" width="120" height="60" as="geometry" />
        </mxCell>
        <mxCell id="UPEFJn1TwGiRiXBq0O36-55" value="Скасування бронювання" style="ellipse;whiteSpace=wrap;html=1;" vertex="1" parent="1">
          <mxGeometry x="1020" y="470" width="120" height="60" as="geometry" />
        </mxCell>
        <mxCell id="UPEFJn1TwGiRiXBq0O36-56" value="Перегляд історії покупок" style="ellipse;whiteSpace=wrap;html=1;" vertex="1" parent="1">
          <mxGeometry x="1020" y="390" width="120" height="60" as="geometry" />
        </mxCell>
        <mxCell id="UPEFJn1TwGiRiXBq0O36-57" value="Оплата квитків" style="ellipse;whiteSpace=wrap;html=1;" vertex="1" parent="1">
          <mxGeometry x="1020" y="310" width="120" height="60" as="geometry" />
        </mxCell>
      </root>
    </mxGraphModel>
  </diagram>
</mxfile>
